<svg width="80" height="73" fill="none" xmlns="http://www.w3.org/2000/svg"><path d="M8 4a2 2 0 012-2h38a2 2 0 012 2v68H8V4z" stroke="#209C3C" stroke-width="2"/><path d="M8 4a2 2 0 012-2h38a2 2 0 012 2v11a2 2 0 01-2 2H10a2 2 0 01-2-2V4zM0 72h80M62 13a7 7 0 007 7v0a7 7 0 007-7V6H62v7zm3-7V0m8 6V0m-4 20v38a5 5 0 01-5 5v0a5 5 0 01-5-5V41a4.5 4.5 0 00-4.5-4.5v0A4.5 4.5 0 0050 41v10" stroke="#209C3C" stroke-width="2"/><path d="M24 45l-.936-.351L24 46v-1zm10 0l.936.351L34 44v1zm-4.936-16.351l-6 16 1.872.702 6-16-1.872-.702zM24 46h10v-2H24v2zm9.064-1.351l-6 16 1.872.702 6-16-1.872-.702z" fill="#209C3C"/></svg>