<svg width="80" height="80" fill="none" xmlns="http://www.w3.org/2000/svg"><path d="M31.5 34H7a2 2 0 00-2 2v38a2 2 0 002 2h66a2 2 0 002-2V36a2 2 0 00-2-2H48M34 46H5m70 0H46m29 11H5m7 11h15" stroke="#209C3C" stroke-width="2"/><path d="M31.948 19v1a1 1 0 001-1h-1zm17.143 0h-1a1 1 0 001 1v-1zM60 19l.797.605A1 1 0 0060 18v1zM40.26 45l-.79.615a1 1 0 001.586-.01L40.26 45zM20 19v-1a1 1 0 00-.789 1.615L20 19zm12.948 0V5h-2v14h2zm0-14h15.143V3H32.948v2zm15.143 0v14h2V5h-2zm1 15H60v-2H49.09v2zm10.112-1.605l-19.74 26 1.593 1.21 19.74-26-1.593-1.21zm-18.155 25.99l-20.26-26-1.577 1.23 20.26 26 1.578-1.23zM20 20h11.948v-2H20v2zM48.09 5h2a2 2 0 00-2-2v2zM32.949 5V3a2 2 0 00-2 2h2z" fill="#209C3C"/></svg>