<svg width="80" height="80" fill="none" xmlns="http://www.w3.org/2000/svg"><path d="M8.768 33C11.96 18.694 24.731 8 40 8c9.558 0 18.137 4.19 24 10.833M71.116 47.5C67.741 61.555 55.09 72 40 72c-9.557 0-18.136-4.19-24-10.833M2 40a7 7 0 017-7v0a7 7 0 017 7v7H2v-7zm3 7v6m8-6v6m51-13a7 7 0 007 7v0a7 7 0 007-7v-7H64v7zm3-7v-6m8 6v-6" stroke="#209C3C" stroke-width="2"/><circle cx="31" cy="31" r="4" stroke="#209C3C" stroke-width="2"/><path d="M29 51l22-22" stroke="#209C3C" stroke-width="2"/><circle cx="49" cy="49" r="4" stroke="#209C3C" stroke-width="2"/></svg>